# xmcd CD database file
#
# Track frame offsets:
#	150
#	15375
#	28392
#	38740
#	50435
#	62847
#	75345
#	88847
#	102265
#	113650
#	126255
#	136987
#	148470
#	162745
#	176207
#	186095
#	197827
#	212392
#	223245
#	234615
#	248057
#	262982
#	276227
#
# Disc length: 3898 seconds
#
# Revision: 0
# Processed by: cddbd v1.5.2PL0 Copyright (c) Steve Scherf et al.
# Submitted via: CDex 1.70beta2
#
DISCID=5a0f3817
DTITLE=Maurice Chevalier - On the top of the world
DYEAR=1900
DGENRE=Jazz
TTITLE0=Valentine
TTITLE1=It's a habit of mine
TTITLE2=Wait till you see 'ma cherie'
TTITLE3=On top of the world, alone
TTITLE4=Sweeping the clouds away
TTITLE5=All I want is just one girl
TTITLE6=Mama Inez
TTITLE7=Toi et moi
TTITLE8=You brought a new kind of love
TTITLE9=Living in the sunlight
TTITLE10=Paris, stay the same
TTITLE11=My love parade
TTITLE12=Dites-moi ma mere
TTITLE13=Quand on est tout seul
TTITLE14=Walkin' my baby back home
TTITLE15=Oh, come on, be sociable
TTITLE16=You took the words
TTITLE17=Hello, beautiful!
TTITLE18=Mimi
TTITLE19=Ma pomme
TTITLE20=Ah! si vous connaissiez ma poule
TTITLE21=Singing a happy song
TTITLE22=Rhythm of the rain
EXTD=
EXTT0=
EXTT1=
EXTT2=
EXTT3=
EXTT4=
EXTT5=
EXTT6=
EXTT7=
EXTT8=
EXTT9=
EXTT10=
EXTT11=
EXTT12=
EXTT13=
EXTT14=
EXTT15=
EXTT16=
EXTT17=
EXTT18=
EXTT19=
EXTT20=
EXTT21=
EXTT22=
PLAYORDER=
